<svg id="Capa_2" enable-background="new 0 0 512 512" height="100" viewBox="0 0 512 512" width="512" xmlns="http://www.w3.org/2000/svg"><g><path d="m166.909 300.091h30v60h-30z" fill="#d6f9fa" transform="matrix(.707 .707 -.707 .707 286.69 -31.947)"/><path d="m361.713 85.284h106.219v45h-106.219z" fill="#83b3f1" transform="matrix(.707 -.707 .707 .707 45.284 324.893)"/><path d="m345.804 76.874h106.219v30h-106.219z" fill="#98d3f3" transform="matrix(.707 -.707 .707 .707 51.874 308.983)"/><path d="m500.107 96.746-21.213-21.213-21.214 21.213 21.213 21.213c5.858 5.858 15.355 5.858 21.213 0s5.858-15.355.001-21.213z" fill="#adf2f5"/><path d="m478.893 96.746c5.858-5.858 5.858-15.355 0-21.213l-63.64-63.64c-5.858-5.858-15.355-5.858-21.213 0s-5.858 15.355 0 21.213l63.64 63.64c5.858 5.858 15.356 5.858 21.213 0z" fill="#d6f9fa"/><path d="m203.122 330.091 21.213 21.214 63.64-63.64-21.214-84.853z" fill="#f7be48"/><path d="m203.122 330.091-42.427-42.426 63.64-63.64 74.246 10.607z" fill="#f4de48"/><path d="m266.761 266.452 21.214 21.213 31.819-31.82-21.213-84.853z" fill="#2b4478"/><path d="m266.761 266.452-42.426-42.427 31.82-31.819 74.246 10.606z" fill="#554fb2"/><path d="m319.794 255.845 74.247-74.246-63.64-63.64-31.82 116.673z" fill="#adf2f5"/><path d="m261.991 146.296h105v60h-105z" fill="#d6f9fa" transform="matrix(.707 -.707 .707 .707 -32.548 274.015)"/><path d="m404.647 128.566-53.033 10.607 42.427 42.426 31.819-31.82z" fill="#98d3f3"/><path d="m345.024 93.263h45v60h-45z" fill="#adf2f5" transform="matrix(.707 -.707 .707 .707 20.485 295.982)"/><path d="m457.68 224.025-21.213-21.213-21.213 21.213 21.213 21.213c5.858 5.858 15.355 5.858 21.213 0s5.858-15.355 0-21.213z" fill="#adf2f5"/><path d="m436.467 224.025c5.858-5.858 5.858-15.355 0-21.213l-148.492-148.492c-5.858-5.858-15.355-5.858-21.213 0s-5.858 15.355 0 21.213l148.492 148.492c5.858 5.858 15.355 5.858 21.213 0z" fill="#d6f9fa"/><path d="m144.785 335.395-58.336 58.336c-8.787 8.787-8.787 23.033 0 31.82s23.033 8.787 31.82 0l58.336-58.336z" fill="#fe8566"/><path d="m187.212 356.608-21.213-21.213-21.213 21.213 21.213 21.213c5.858 5.858 15.355 5.858 21.213 0s5.858-15.355 0-21.213z" fill="#ff3a33"/><path d="m165.999 356.608c5.858-5.858 5.858-15.355 0-21.213l-10.607-10.607c-5.858-5.858-15.355-5.858-21.213 0s-5.858 15.355 0 21.213l10.607 10.607c5.857 5.858 15.355 5.858 21.213 0z" fill="#fe5e49"/><path d="m505.42 91.433-84.852-84.853c-8.773-8.773-23.047-8.773-31.82 0s-8.773 23.047 0 31.82l15.91 15.91-31.82 31.82-5.303-5.303c-2.929-2.929-7.678-2.929-10.607 0l-15.91 15.91-47.73-47.73c-8.773-8.773-23.047-8.773-31.82 0s-8.773 23.047 0 31.82l47.73 47.73-153.795 153.794c-2.929 2.929-2.929 7.678 0 10.607l15.91 15.91-10.607 10.607c-8.773-8.773-23.047-8.773-31.82 0-6.911 6.911-8.353 17.228-4.375 25.588l-43.355 43.355c-9.866 9.866-11.41 24.952-4.632 36.452l-74.327 74.326c-2.929 2.929-2.929 7.678 0 10.607s7.677 2.929 10.607 0l74.327-74.327c11.5 6.778 26.586 5.234 36.452-4.632l43.355-43.355c8.36 3.978 18.677 2.536 25.588-4.375 8.773-8.773 8.773-23.047 0-31.82l10.607-10.607 15.91 15.91c2.929 2.929 7.678 2.929 10.607 0l153.796-153.796 47.73 47.73c8.772 8.773 23.047 8.773 31.82 0s8.772-23.047 0-31.82l-47.73-47.73 15.91-15.91c2.929-2.929 2.929-7.677 0-10.607l-5.303-5.303 31.82-31.82 15.91 15.91c8.773 8.773 23.047 8.773 31.82 0 8.77-8.772 8.77-23.046-.003-31.818zm-249.255 111.369 53.033 53.033-21.213 21.213-53.033-53.033zm-143.189 217.435c-5.848 5.848-15.364 5.849-21.213 0s-5.849-15.365 0-21.213l42.426-42.426 21.213 21.213zm68.943-47.73c-2.924 2.924-7.682 2.924-10.607 0l-31.82-31.82c-2.924-2.924-2.924-7.682 0-10.607 2.924-2.924 7.682-2.924 10.607 0l31.82 31.82c2.925 2.925 2.925 7.683 0 10.607zm0-31.819-10.607-10.607 10.607-10.607 10.607 10.607zm42.427 0-53.033-53.033 53.033-53.033 53.033 53.033zm228.041-100.763c-2.924 2.924-7.682 2.924-10.607 0l-95.459-95.459c-2.929-2.929-7.678-2.929-10.607 0s-2.929 7.678 0 10.607l37.123 37.123-53.033 53.033-53.033-53.033 58.336-58.336c2.929-2.929 2.929-7.678 0-10.607l-53.033-53.033c-2.924-2.924-2.924-7.682 0-10.607 2.924-2.924 7.682-2.924 10.607 0l169.706 169.706c2.925 2.924 2.925 7.682 0 10.606zm-100.762-132.583 10.607-10.607 53.033 53.033-10.607 10.607zm63.639 21.214-31.82-31.82 31.82-31.82 31.82 31.82zm79.55-15.91c-2.924 2.924-7.682 2.924-10.607 0l-84.853-84.853c-2.924-2.924-2.924-7.682 0-10.607 2.924-2.924 7.682-2.924 10.607 0l84.853 84.853c2.924 2.925 2.924 7.682 0 10.607z"/></g></svg>